<svg width="14" height="14" viewBox="0 0 14 14" fill="none" xmlns="http://www.w3.org/2000/svg">
<path fill-rule="evenodd" clip-rule="evenodd" d="M9.57753 1.51842C9.55079 1.31978 9.38182 1.16667 9.17737 1.16667C8.95433 1.16667 8.77353 1.34888 8.77353 1.57365V2.0236H5.2314V1.57365L5.22772 1.51842C5.20097 1.31978 5.03201 1.16667 4.82756 1.16667C4.60452 1.16667 4.42371 1.34888 4.42371 1.57365V2.03371C2.76881 2.14769 1.75 3.21997 1.75 4.95005V9.86071C1.75 11.7176 2.89236 12.8333 4.72282 12.8333H9.27713C11.1098 12.8333 12.25 11.7362 12.25 9.90176V4.95005C12.2552 3.21935 11.2397 2.14737 9.58122 2.03366V1.57365L9.57753 1.51842ZM8.77353 2.83755V3.35934L8.77721 3.41457C8.80396 3.61321 8.97292 3.76632 9.17737 3.76632C9.40041 3.76632 9.58122 3.58411 9.58122 3.35934V2.84958C10.7879 2.94998 11.4462 3.6766 11.4423 4.9488V5.18448H2.5577V4.95005C2.5577 3.67867 3.21957 2.9505 4.42371 2.84967V3.35934L4.4274 3.41457C4.45414 3.61321 4.62311 3.76632 4.82756 3.76632C5.05059 3.76632 5.2314 3.58411 5.2314 3.35934V2.83755H8.77353ZM2.5577 5.99844V9.86071C2.5577 11.2622 3.3329 12.0194 4.72283 12.0194H9.27714C10.6718 12.0194 11.4423 11.2781 11.4423 9.90176L11.4423 5.99844H2.5577ZM9.80069 7.71069C9.80069 7.48592 9.61988 7.30371 9.39684 7.30371L9.33706 7.30743C9.13994 7.33438 8.98801 7.50465 8.98801 7.71069C8.98801 7.93546 9.16882 8.11767 9.39684 8.11767L9.45164 8.11395C9.64876 8.087 9.80069 7.91673 9.80069 7.71069ZM7.00746 7.30371C7.2305 7.30371 7.41131 7.48592 7.41131 7.71069C7.41131 7.91673 7.25938 8.087 7.06226 8.11395L7.00746 8.11767C6.77944 8.11767 6.59863 7.93546 6.59863 7.71069C6.59863 7.50465 6.75056 7.33438 6.94768 7.30743L7.00746 7.30371ZM5.01691 7.71069C5.01691 7.48592 4.83611 7.30371 4.61307 7.30371L4.55328 7.30743C4.35616 7.33438 4.20424 7.50465 4.20424 7.71069C4.20424 7.93546 4.38504 8.11767 4.60808 8.11767L4.66787 8.11395C4.86498 8.087 5.01691 7.91673 5.01691 7.71069ZM9.39684 9.41268C9.61988 9.41268 9.80069 9.59489 9.80069 9.81966C9.80069 10.0257 9.64876 10.196 9.45164 10.2229L9.39684 10.2266C9.16882 10.2266 8.98801 10.0444 8.98801 9.81966C8.98801 9.61362 9.13994 9.44334 9.33706 9.4164L9.39684 9.41268ZM7.41131 9.81966C7.41131 9.59489 7.2305 9.41268 7.00746 9.41268L6.94768 9.4164C6.75056 9.44334 6.59863 9.61362 6.59863 9.81966C6.59863 10.0444 6.77944 10.2266 7.00746 10.2266L7.06226 10.2229C7.25938 10.196 7.41131 10.0257 7.41131 9.81966ZM4.61307 9.41268C4.83611 9.41268 5.01691 9.59489 5.01691 9.81966C5.01691 10.0257 4.86498 10.196 4.66787 10.2229L4.60808 10.2266C4.38504 10.2266 4.20424 10.0444 4.20424 9.81966C4.20424 9.61362 4.35616 9.44334 4.55328 9.4164L4.61307 9.41268Z" fill="#2C665D"/>
</svg>
