<svg width="14" height="14" viewBox="0 0 14 14" fill="none" xmlns="http://www.w3.org/2000/svg">
<path fill-rule="evenodd" clip-rule="evenodd" d="M6.77339 1.16667C3.67688 1.16667 1.16666 3.62145 1.16666 6.64957C1.16666 9.6777 3.67688 12.1325 6.77339 12.1325C8.09776 12.1325 9.31489 11.6834 10.2742 10.9325L12.0966 12.71L12.1451 12.7509C12.3143 12.8733 12.5542 12.8594 12.7073 12.7093C12.8757 12.5442 12.8753 12.2768 12.7065 12.1121L10.9055 10.3555C11.8212 9.37963 12.3801 8.07843 12.3801 6.64957C12.3801 3.62145 9.8699 1.16667 6.77339 1.16667ZM6.77338 2.01118C9.39295 2.01118 11.5165 4.08786 11.5165 6.64957C11.5165 9.21128 9.39295 11.288 6.77338 11.288C4.15382 11.288 2.03024 9.21128 2.03024 6.64957C2.03024 4.08786 4.15382 2.01118 6.77338 2.01118Z" fill="#A6ABB2"/>
</svg>
